<?xml version="1.0" encoding="UTF-8" standalone="no"?>
<svg
   viewBox="0 0 200 200"
   width="200"
   height="200"
   version="1.1"
   id="svg4"
   sodipodi:docname="Logo Transparent Hell.svg"
   inkscape:version="1.4.3 (0d15f75042, 2025-12-25)"
   xmlns:inkscape="http://www.inkscape.org/namespaces/inkscape"
   xmlns:sodipodi="http://sodipodi.sourceforge.net/DTD/sodipodi-0.dtd"
   xmlns="http://www.w3.org/2000/svg"
   xmlns:svg="http://www.w3.org/2000/svg">
  <defs
     id="defs4" />
  <sodipodi:namedview
     id="namedview4"
     pagecolor="#ffffff"
     bordercolor="#000000"
     borderopacity="0.25"
     inkscape:showpageshadow="2"
     inkscape:pageopacity="0.0"
     inkscape:pagecheckerboard="0"
     inkscape:deskcolor="#d1d1d1"
     inkscape:zoom="2.6460293"
     inkscape:cx="55.55494"
     inkscape:cy="49.508143"
     inkscape:window-width="1800"
     inkscape:window-height="1067"
     inkscape:window-x="0"
     inkscape:window-y="0"
     inkscape:window-maximized="1"
     inkscape:current-layer="svg4" />
  <!-- Terminalfenster -->
  <!-- Titelleiste -->
  <!-- Drei Punkte (Fenster-Buttons) -->
  <rect
     x="20"
     y="40"
     width="160"
     height="120"
     rx="10"
     ry="10"
     fill="none"
     stroke="#1e1e1e"
     stroke-width="6"
     id="rect1"
     style="stroke:#cad3f5" />
  <line
     x1="20"
     y1="62"
     x2="180"
     y2="62"
     stroke="#1e1e1e"
     stroke-width="6"
     id="line1"
     style="stroke:#cad3f5" />
  <circle
     cx="34"
     cy="51"
     r="3"
     fill="#1e1e1e"
     id="circle1"
     style="stroke:#cad3f5;fill:#cad3f5" />
  <circle
     cx="46"
     cy="51"
     r="3"
     fill="#1e1e1e"
     id="circle2"
     style="stroke:#cad3f5;fill:#cad3f5" />
  <circle
     cx="58"
     cy="51"
     r="3"
     fill="#1e1e1e"
     id="circle3"
     style="stroke:#cad3f5;fill:#cad3f5" />
  <!-- Prompt-Symbol > -->
  <!-- Achtelnote -->
  <!-- Notenfähnchen -->
  <g
     id="g7"
     transform="translate(5.4981713,2.6752859)"
     style="stroke:#cad3f5;fill:#cad3f5">
    <path
       id="path1"
       style="fill:#cad3f5;stroke-width:0.0594342;stroke:#cad3f5"
       d="m 128.93143,72.031642 c -1.2521,-0.04712 -2.80083,0.654919 -4.13428,1.903869 -1.41266,1.323162 -2.31198,2.904175 -2.8338,4.981798 -0.38061,1.515412 -0.43836,2.484017 -0.24076,4.035492 0.22766,1.787433 0.46748,2.909431 0.98728,4.617298 0.2239,0.735678 0.72833,2.571046 0.83661,3.044264 0.0238,0.103885 -0.21979,0.342701 -1.38822,1.361299 -3.00439,2.619114 -4.82367,4.692084 -5.92103,6.746716 -0.95416,1.786492 -1.41588,4.271582 -1.17046,6.299222 0.17228,1.42331 0.45039,2.39669 0.98741,3.45554 0.48374,0.95386 1.10965,1.80204 1.94785,2.6396 1.68081,1.67953 3.61415,2.71016 5.96502,3.17985 0.84832,0.16949 2.61112,0.22312 3.57824,0.10889 0.37659,-0.0445 0.71051,-0.0816 0.74212,-0.0825 0.10369,-0.003 0.72993,4.14269 0.7854,5.19899 0.0581,1.10621 -0.16995,2.02779 -0.69672,2.81536 -0.68828,1.02906 -1.82355,1.7119 -3.08315,1.85442 l -0.37785,0.0426 0.0375,0.48173 c 0.0206,0.26496 0.0378,0.59904 0.0378,0.74247 l 6e-4,0.26083 0.51192,-0.0416 c 1.04164,-0.0845 2.13994,-0.46643 2.89881,-1.00794 1.25559,-0.89598 2.14243,-2.51102 2.35462,-4.28821 0.0991,-0.83028 0.0169,-1.59479 -0.50821,-4.72676 -0.14559,-0.86831 -0.26468,-1.62281 -0.26468,-1.6767 0,-0.0653 0.0841,-0.11976 0.25261,-0.16344 0.44548,-0.11546 1.66238,-0.75804 2.21392,-1.16895 0.77244,-0.57552 1.69015,-1.51878 2.11387,-2.17284 1.03503,-1.59767 1.41971,-2.96319 1.34377,-4.76959 -0.0417,-0.99373 -0.19759,-1.78484 -0.52098,-2.64483 -1.06057,-2.82042 -3.40651,-4.55477 -6.50271,-4.807444 -0.39226,-0.03201 -0.96729,-0.03779 -1.27784,-0.01289 -0.31055,0.02491 -0.56817,0.04309 -0.57251,0.04051 -0.004,-0.0026 -0.22599,-1.068001 -0.49243,-2.367618 -0.26645,-1.299617 -0.49676,-2.39618 -0.5118,-2.436804 -0.015,-0.04063 0.0594,-0.130111 0.16553,-0.19885 0.5698,-0.369292 2.78275,-2.452886 3.78625,-3.564894 2.42081,-2.682515 3.73518,-5.542436 3.97769,-8.655228 0.13998,-1.796747 -0.24303,-3.81039 -1.03197,-5.425116 -0.94715,-1.938512 -2.23602,-3.247313 -3.4783,-3.532158 -0.16527,-0.03789 -0.33804,-0.05989 -0.51691,-0.06663 z m -0.23252,2.758701 c 0.55264,0.02077 1.09371,0.20146 1.598,0.536184 0.7847,0.520856 1.42046,1.595489 1.81136,3.06191 0.1288,0.48324 0.1527,0.705008 0.1574,1.461246 0.005,0.824978 -0.008,0.942693 -0.18166,1.576633 -0.33158,1.212866 -0.93611,2.391874 -1.76051,3.433604 -0.19924,0.251761 -0.81869,0.914809 -1.37651,1.473435 -0.75306,0.754143 -1.38476,1.30833 -2.45329,2.152286 -0.79151,0.625157 -1.45243,1.115137 -1.46868,1.088855 -0.0163,-0.02628 -0.0954,-0.326149 -0.17598,-0.66643 -0.0805,-0.340281 -0.28026,-1.086764 -0.44389,-1.65882 -0.39095,-1.366633 -0.77058,-3.026252 -0.87005,-3.803791 -0.19417,-1.517866 -0.1735,-2.278042 0.0979,-3.593799 0.5445,-2.640162 2.39199,-4.699899 4.51038,-5.028578 0.18584,-0.02884 0.37136,-0.03965 0.55556,-0.03274 z m -16.4526,2.295647 c -8.10163,0 -8.34854,0.0033 -8.79394,0.117244 -1.09665,0.280475 -1.95748,0.97759 -2.43228,1.969689 -0.14687,0.30687 -0.30308,0.704992 -0.34709,0.884781 -0.0667,0.272388 -0.0764,5.311106 -0.0585,30.222316 0.0228,31.7148 0.009,30.29104 0.29078,31.03059 0.38742,1.01819 1.42055,1.89478 2.51087,2.13035 0.32838,0.0709 3.78706,0.0819 23.06049,0.0731 l 22.67416,-0.0103 0.38632,-0.13211 c 1.15634,-0.39556 2.02288,-1.26492 2.35648,-2.36413 0.10385,-0.34217 0.10889,-1.38737 0.12455,-25.81581 0.0115,-17.931928 -0.002,-25.529013 -0.0472,-25.695224 -0.0493,-0.183096 -0.21398,-0.384758 -0.73469,-0.899872 -0.3691,-0.365145 -1.08242,-1.091802 -1.58522,-1.614824 -0.50278,-0.523022 -1.98509,-2.04751 -3.29397,-3.387752 -1.30885,-1.340242 -3.22952,-3.310238 -4.26822,-4.377819 -1.0387,-1.067583 -1.97826,-1.983613 -2.08786,-2.035624 -0.17109,-0.08118 -0.51127,-0.09461 -2.4042,-0.09461 -1.21271,0 -2.20497,0.01131 -2.20497,0.02507 0,0.01376 0.0517,0.247786 0.11503,0.520049 0.0634,0.272265 0.14692,0.755743 0.18573,1.07446 l 0.0705,0.579484 h 1.47854 1.47854 l 0.008,1.381846 c 0.004,0.760016 0.012,2.665626 0.0178,4.23469 0.0117,3.170304 0.002,3.081292 0.43344,3.907338 0.26697,0.510853 0.90067,1.121331 1.41273,1.36095 0.72646,0.339955 0.81878,0.346074 5.18656,0.347203 l 3.99695,0.0011 v 19.940195 19.94018 h -9.14184 c -10.09206,0 -9.37984,-0.0263 -10.13621,0.37415 -0.63686,0.33717 -1.11188,0.91133 -1.36234,1.64662 -0.13094,0.3844 -0.13164,0.40719 -0.13164,4.57643 v 4.19011 h -12.42188 -12.42176 l -0.29625,-0.1458 c -0.40816,-0.20084 -0.7708,-0.59048 -0.90219,-0.9694 -0.1037,-0.29904 -0.10794,-1.46468 -0.10853,-29.82031 -5.9e-4,-28.943905 0.002,-29.514817 0.11341,-29.804654 0.14973,-0.388217 0.55722,-0.816246 0.94317,-0.990764 l 0.30983,-0.140112 8.00876,-0.01567 8.00876,-0.01568 v -0.251784 c 0,-0.300586 0.1438,-1.197518 0.26141,-1.633629 l 0.0842,-0.312029 z M 124.534,94.625942 c 0.005,2e-5 0.009,0.0013 0.0119,0.0039 0.0171,0.01708 0.20338,0.906875 0.41407,1.977349 0.2107,1.070473 0.39923,1.997176 0.41894,2.059303 0.0234,0.07347 0.008,0.112949 -0.0456,0.112949 -0.13479,0 -1.03094,0.454266 -1.42747,0.723542 -0.57223,0.388603 -1.38293,1.206775 -1.77188,1.788255 -0.78704,1.17664 -1.07556,2.07974 -1.08653,3.40191 -0.008,0.84953 0.0445,1.21893 0.26885,1.93162 0.25,0.79403 0.85638,1.72861 1.43129,2.20568 1.07348,0.89081 2.27548,1.36154 2.42961,0.95153 0.046,-0.12229 0.0194,-0.1705 -0.19711,-0.35661 -0.98152,-0.84405 -1.42886,-1.43327 -1.69782,-2.23598 -0.14173,-0.423 -0.15928,-0.56401 -0.15845,-1.27783 8.3e-4,-0.94665 0.0839,-1.30957 0.43113,-1.8904 0.30459,-0.50946 0.75747,-1.01319 1.29559,-1.44082 0.43702,-0.34728 1.07741,-0.74382 1.12473,-0.6965 0.0548,0.0548 0.57724,2.69537 1.06401,5.37868 0.27735,1.52887 0.61169,3.35475 0.74304,4.05755 0.13135,0.70282 0.23924,1.32055 0.23924,1.3728 6e-4,0.0739 -0.10858,0.11026 -0.48997,0.16356 -0.45189,0.0632 -1.87354,0.0795 -2.36251,0.027 -0.92243,-0.0988 -2.18323,-0.46142 -3.06087,-0.88037 -1.20421,-0.57486 -2.45233,-1.57706 -3.11391,-2.50042 -1.66876,-2.32905 -1.91031,-5.39767 -0.63602,-8.07841 0.86203,-1.813469 2.14073,-3.32396 4.70088,-5.552699 0.65378,-0.569146 1.24876,-1.088281 1.32218,-1.153744 0.0619,-0.05524 0.12439,-0.09205 0.15265,-0.09194 z m 3.19076,6.869998 0.5118,0.0394 c 1.90766,0.14663 3.26059,0.86877 4.16504,2.22321 0.50238,0.75231 0.84049,1.81994 0.89314,2.82045 0.0956,1.81634 -0.73872,3.70508 -2.1228,4.8057 -0.5323,0.4233 -1.47521,0.93223 -1.51046,0.81525 -0.0408,-0.13546 -0.37547,-1.903 -0.83603,-4.41613 -0.24561,-1.34024 -0.59381,-3.23574 -0.77369,-4.21216 -0.17988,-0.97644 -0.327,-1.84285 -0.327,-1.92547 z m 16.76045,32.11051 2.18421,0.0157 2.1842,0.0155 v 0.59435 0.59434 l -1.47098,-0.0226 -1.471,-0.0226 v 0.69126 0.69128 h 1.30755 1.30756 v 0.62406 0.62407 h -1.30756 -1.30755 v 1.24811 1.24812 h -0.71321 -0.71322 v -3.1507 z m -12.4812,0.002 1.41157,6e-4 c 1.58485,5.9e-4 2.05622,0.0712 2.6374,0.39572 0.59572,0.33265 0.92127,1.02679 0.87096,1.85721 -0.037,0.61098 -0.21224,0.9973 -0.62208,1.37186 -0.4546,0.41547 -0.84656,0.5272 -2.02065,0.57566 l -0.9102,0.0374 v 1.03081 1.03081 h -0.68349 -0.68351 v -3.15001 z m 5.88401,0 h 1.30232 c 1.82245,0 2.48323,0.14298 3.17382,0.68663 0.62842,0.49471 1.0261,1.3049 1.09326,2.2274 0.11433,1.57041 -0.79376,2.89447 -2.24271,3.27004 -0.14963,0.0388 -0.93477,0.082 -1.79626,0.0989 l -1.53043,0.0301 v -3.15651 z m -4.51701,1.17673 v 0.92729 0.92716 h 0.71506 c 0.7797,0 0.99961,-0.0567 1.24255,-0.32004 0.10955,-0.11878 0.15089,-0.24148 0.16983,-0.50334 0.0308,-0.42559 -0.0737,-0.6548 -0.3876,-0.84996 -0.19857,-0.12346 -0.31124,-0.14175 -0.98205,-0.16018 z m 5.91371,0.0417 -0.0157,1.91675 -0.0156,1.91675 h 0.6821 c 0.88365,0 1.20138,-0.10916 1.62644,-0.55858 0.39187,-0.41436 0.51554,-0.80613 0.46966,-1.48877 -0.0585,-0.86977 -0.29408,-1.28208 -0.90416,-1.58243 -0.36633,-0.18035 -0.42168,-0.19014 -1.11405,-0.19676 z"
       sodipodi:nodetypes="ssssssssssssssssccsccsssssssssssssssssssssssscsssssssssssssssssssccsssssssssssccccssssscccssssccccscscccccscsssssssssssssscssssscsssssssscscsssssscccscccccccccccccccccccsssscccccccccscsscccccccsssscccccssssscsc" />
    <path
       d="m 41.207625,92.998159 -1.908726,1.879865 c -1.049913,1.034109 -1.907927,1.977062 -1.907927,2.095148 0,0.118084 2.498921,2.371129 5.552212,5.006998 5.294176,4.57036 5.5209,4.82719 4.891527,5.54053 -0.497739,0.56413 -9.666479,8.81415 -10.843911,9.75735 -0.109828,0.088 0.778458,1.02612 1.974263,2.08423 l 2.17471,1.92354 0.97503,-0.76754 c 1.630042,-1.28217 13.384806,-11.79437 14.345458,-12.8291 l 0.897792,-0.96723 -4.850951,-4.16846 c -2.668415,-2.29235 -6.302674,-5.380224 -8.075613,-6.861899 z m 14.953107,24.357891 v 2.59593 2.59593 h 10.383713 10.383713 v -2.59593 -2.59593 H 66.544445 Z"
       style="fill:#cad3f5;stroke-width:0.399373;stroke:#cad3f5"
       id="path1-3" />
  </g>
</svg>
